<svg width="16" height="16" viewBox="0 0 16 16" fill="none" xmlns="http://www.w3.org/2000/svg">
<path d="M11.0917 11.2406L11.5611 11.71L14.7906 14.9394L14.9393 14.7907L11.7098 11.5613L11.2403 11.0918L11.6494 10.5688C12.4819 9.50486 12.9344 8.19291 12.9347 6.84199L11.0917 11.2406ZM11.0917 11.2406L10.5687 11.6495M11.0917 11.2406L10.5687 11.6495M10.5687 11.6495C9.50478 12.4815 8.19303 12.9337 6.84236 12.934L10.5687 11.6495ZM6.8422 12.934C3.48374 12.9339 0.75 10.2002 0.75 6.84199C0.75 3.48374 3.48383 0.75 6.84236 0.75C10.2008 0.75 12.9346 3.48364 12.9347 6.84181L6.8422 12.934ZM12.7241 6.84199C12.7241 3.59772 10.0867 0.960498 6.84236 0.960498C3.59801 0.960498 0.96059 3.59772 0.96059 6.84199C0.96059 10.0863 3.59801 12.7235 6.84236 12.7235C10.0867 12.7235 12.7241 10.0863 12.7241 6.84199Z" fill="white" stroke="white" stroke-width="1.5"/>
</svg>
